{"accessors":[{"bufferView":0,"componentType":5123,"count":7860,"max":[7859],"min":[0],"name":"buffer-0-accessor-indices-buffer-0-mesh-0","type":"SCALAR"},{"bufferView":2,"componentType":5126,"count":7860,"max":[5.964828968048096,8.354822158813477,6.896670818328857],"min":[-5.964828968048096,0,-4.734763145446777],"name":"buffer-0-accessor-position-buffer-0-mesh-0","type":"VEC3"},{"bufferView":2,"byteOffset":94320,"componentType":5126,"count":7860,"max":[1,1,1],"min":[-1,-1,-1],"name":"buffer-0-accessor-normal-buffer-0-mesh-0","type":"VEC3"},{"bufferView":1,"componentType":5126,"count":7860,"max":[0.9995729923248291,0],"min":[0,-0.9947800040245056],"name":"buffer-0-accessor-texcoord-buffer-0-mesh-0","type":"VEC2"},{"bufferView":3,"componentType":5126,"count":0,"max":[0,0,0,0],"min":[0,0,0,0],"name":"buffer-0-accessor-color-buffer-0-mesh-0","type":"VEC4"}],"asset":{"extras":{"GOOGLE_processor_version":294144208},"generator":"Obj2GltfConverter","version":"2.0"},"bufferViews":[{"buffer":0,"byteLength":15720,"byteStride":0,"name":"buffer-0-bufferview-ushort","target":34963},{"buffer":0,"byteLength":62880,"byteOffset":15720,"byteStride":8,"name":"buffer-0-bufferview-vec2","target":34962},{"buffer":0,"byteLength":188640,"byteOffset":78600,"byteStride":12,"name":"buffer-0-bufferview-vec3","target":34962},{"buffer":0,"byteLength":1,"name":"buffer-0-bufferview-vec4"}],"buffers":[{"byteLength":267248,"name":"buffer-0","uri":"data:application/octet-stream;base64,"}],"cameras":[{"perspective":{"yfov":0.7853981633974483,"znear":0.1000000014901161},"type":"perspective"}],"extensions":{"KHR_lights_punctual":{"lights":[{"color":[1,0.9333333333333333,0.8666666666666667],"intensity":0.25,"name":"headLight","type":"directional"},{"color":[1,0.9333333333333333,0.8666666666666667],"intensity":0.324999988079071,"name":"keyLight","type":"directional"}]}},"extensionsUsed":["GOOGLE_backgrounds","GOOGLE_camera_settings","KHR_lights_punctual"],"extras":{"GOOGLE_initial_camera_motion":{"motionPath":"FULL_ROTATION"},"GOOGLE_lighting_rig":{"disableShadows":false}},"images":[{"mimeType":"image/png","name":"CockpitControlCenter_Mat-image","uri":"data:application/octet-stream;base64,"}],"materials":[{"doubleSided":true,"name":"CockpitControlCenter_Mat","pbrMetallicRoughness":{"baseColorTexture":{"index":0},"metallicFactor":0,"roughnessFactor":0.9699476628648295}}],"meshes":[{"name":"buffer-0-mesh-0","primitives":[{"attributes":{"NORMAL":2,"POSITION":1,"TEXCOORD_0":3},"indices":0,"material":0}]}],"nodes":[{"mesh":0,"name":"node-0"},{"children":[2]},{"children":[3],"extras":{"isTransformNode":1},"translation":[-0.0298241448402405,3.984960432624161,1.189285475133814]},{"children":[0],"translation":[0.0298241448402405,-3.984960432624161,-1.189285475133814]},{"camera":0,"children":[5],"rotation":[-0.03706028637845086,0.002978586158487187,0.0001104636320860475,0.9993085864715814],"translation":[0.1022166510770191,5.630121111506969,23.33877550674716]},{"extensions":{"KHR_lights_punctual":{"light":0}},"extras":{"isHeadLight":1},"name":"headLightNode","translation":[-10.81905359987914,5.40952679993957,5.40952679993957]},{"extensions":{"KHR_lights_punctual":{"light":1}},"extras":{"isKeyLight":1},"name":"keyLightNode","rotation":[-0.7505326882858236,-0.3752663441429118,0,0.5439447166468927],"scale":[0,0,10.92724413587793],"translation":[-10.92880477791925,27.55480984836937,-9.244472797227528]}],"samplers":[{"name":"CockpitControlCenter_Mat-sampler","wrapS":10497,"wrapT":10497}],"scene":0,"scenes":[{"extensions":{"GOOGLE_backgrounds":{"color":[0.1490196078431373,0.196078431372549,0.2196078431372549]},"GOOGLE_camera_settings":{}},"extras":{"GOOGLE_camera_index":{"cameraIndex":0,"nodeIndex":4},"GOOGLE_geometry_data":{"stats":{"centroid":[-0.001560642041322839,5.700321576613506,1.682771338650402],"radius":10.81905359987914,"stdev":4.600027159034825},"visualCenterPoint":[-0.0298241448402405,3.984960432624161,1.189285475133814]},"GOOGLE_hemi_light":{"groundColor":[0.1490196078431373,0.196078431372549,0.2196078431372549]}},"name":"scene-0","nodes":[1,4,6]}],"textures":[{"name":"CockpitControlCenter_Mat-texture","sampler":0,"source":0}]}